 http://www.pix2links.com/image/r6MUh.png
 
http://www.pix2links.com/image/5JPnd.jpg
 
http://www.pix2links.com/image/09vq1.jpg


*******************************************************************************
Lara Croft Tomb Raider 2:The Cradle of Life.Hindi.Dvdrip=SiNiSTER-TDT\Lara Croft Tomb Raider 2The Cradle of Life.[2003].Hindi.Dvdrip=SiNiSTER-TDT.mkv                 
*******************************************************************************

-------------------------------------------------------------------------------
                              General Information
-------------------------------------------------------------------------------
General
Unique ID                        : 238745002124096177962308709286677179669 (0xB39C9D67E1B7C514999D19CB1DA9ED15)
Complete name                    : E:\Lara Croft Tomb Raider 2The Cradle of Life.Hindi.Dvdrip=SiNiSTER-TDT\Lara Croft Tomb Raider 2The Cradle of Life.Hindi.Dvdrip=SiNiSTER-TDT.mkv
Format                           : Matroska
File size                        : 581 MiB
Duration                         : 1h 41mn
Overall bit rate                 : 802 Kbps
Movie name                       : Lara Croft Tomb Raider 2:The Cradle of Life Dvdrip=SiNiSTER\TDT=RANGER_TDT
Encoded date                     : UTC 2011-11-06 15:27:47
Writing application              : mkvmerge v4.3.0 ('Escape from the Island') built on Sep  5 2010 10:30:51
Writing library                  : libebml v1.0.0 + libmatroska v1.0.0
Encoder                          : Ranger/Mogambo/Wolfmaner


[img]http://www.pix2links.com/images/20349311072267311198.png[/img]

Video
ID                               : 1
Format                           : AVC
Format/Info                      : Advanced Video Codec
Format profile                   : Main@L2.1
Format settings, CABAC           : Yes
Format settings, ReFrames        : 4 frames
Muxing mode                      : Header stripping
Codec ID                         : V_MPEG4/ISO/AVC
Duration                         : 1h 41mn
Bit rate                         : 466 Kbps
Nominal bit rate                 : 496 Kbps
Width                            : 640 pixels
Height                           : 272 pixels
Display aspect ratio             : 2.35:1
Frame rate mode                  : Variable
Frame rate                       : 25.000 fps
Color space                      : YUV
Chroma subsampling               : 4:2:0
Bit depth                        : 8 bits
Scan type                        : Progressive
Bits/(Pixel*Frame)               : 0.107
Stream size                      : 337 MiB (58%)
Title                            : RANGER_TdT
Writing library                  : x264 core 112
Encoding settings                : cabac=1 / ref=2 / deblock=1:0:0 / analyse=0x1:0x111 / me=hex / subme=6 / psy=1 / psy_rd=1.00:0.00 / mixed_ref=0 / me_range=16 / chroma_me=1 / trellis=0 / 8x8dct=0 / cqm=0 / deadzone=21,11 / fast_pskip=1 / chroma_qp_offset=-2 / threads=6 / sliced_threads=0 / nr=0 / decimate=1 / interlaced=0 / constrained_intra=0 / bframes=2 / b_pyramid=2 / b_adapt=1 / b_bias=0 / direct=1 / weightb=0 / open_gop=0 / weightp=2 / keyint=250 / keyint_min=25 / scenecut=40 / intra_refresh=0 / rc_lookahead=40 / rc=abr / mbtree=1 / bitrate=496 / ratetol=1.0 / qcomp=0.60 / qpmin=3 / qpmax=51 / qpstep=4 / ip_ratio=1.40 / aq=1:1.00
Language                         : English
Color primaries                  : BT.709-5, BT.1361, IEC 61966-2-4, SMPTE RP177
Transfer characteristics         : BT.709-5, BT.1361
Matrix coefficients              : BT.709-5, BT.1361, IEC 61966-2-4 709, SMPTE RP177


[img]http://www.pix2links.com/images/97620169951974180344.png[/img]

Audio
ID                               : 2
Format                           : MPEG Audio
Format version                   : Version 1
Format profile                   : Layer 3
Mode                             : Joint stereo
Mode extension                   : MS Stereo
Muxing mode                      : Header stripping
Codec ID                         : A_MPEG/L3
Codec ID/Hint                    : MP3
Duration                         : 1h 41mn
Bit rate mode                    : Constant
Bit rate                         : 320 Kbps
Channel(s)                       : 2 channels
Sampling rate                    : 48.0 KHz
Compression mode                 : Lossy
Stream size                      : 232 MiB (40%)
Title                            : RANGER_TdT
Writing library                  : LAME3.98






Greets(TDT):
Team TDT,Chaos,DDR,DET,HDDR,DUS,ExD,TNT,XMR,IcTV,SaM..etc



Greets(SiNiSTER):
DarkScene,HDScene,Noir,Chaos,CrEwSaDe,blackjesus,ViSiON,HDLiTE,UnKnOwN,EP1C,IMAGiNE,
FLAWL3SS,Rx,ELEKTRI4KA,CiNEDUB,BDK,SAFCuk009,HiVE-CM8..... and everybody else we 
respect.. u know who u are

-------------------------------------------------------------------------------
                               Post Information
-------------------------------------------------------------------------------
Encoded by...........: SiNiSTER & TDT its a combined release of Both the groups.
 
Have sumthing to offer..looking for suppliers... cammers,cams,screeners, audio
supplier.. and any pre retail DVD/BR any RC...if u can provide any email us at
sinister@hushmail.me


-------------------------------------------------------------------------------
                                 ScreenShots
------------------------------------------------------------------------------- 
http://img192.imageshack.us/img192/4387/vlcsnap2011110621h05m51.png
 
http://img830.imageshack.us/img830/425/vlcsnap2011110621h08m09.png
 
http://img407.imageshack.us/img407/5508/vlcsnap2011110621h09m44.png
 
http://img85.imageshack.us/img85/3358/vlcsnap2011110621h10m46.png
 
http://img210.imageshack.us/img210/8857/vlcsnap2011110621h14m44.png
 
http://img64.imageshack.us/img64/6827/vlcsnap2011110621h18m40.png
 
http://img36.imageshack.us/img36/461/vlcsnap2011110621h20m19.png
 
http://img507.imageshack.us/img507/826/vlcsnap2011110621h23m07.png
 
http://img233.imageshack.us/img233/3148/vlcsnap2011110621h25m16.png
 
http://img694.imageshack.us/img694/2018/laracrofttombraider2the.jpg

Enjoy guysss :P

-------------------------------------------------------------------------------
Generated with Cool NFO Creator - http://fly.to/coolbeans
-------------------------------------------------------------------------------
 
http://www.pix2links.com/images/33502453931372952618.gif

[color=red][size=5]Guys Sample is Included in the torrent so plz download it first to check the quality[/size][/color]

[color=purple][size=6]And guys feel free to tell your request to me through messages :-)[/size][/color]